<?xml version="1.0" encoding="UTF-8"?>
<svg id="Layer_1" data-name="Layer 1" xmlns="http://www.w3.org/2000/svg" viewBox="0 0 91.01 15.96">
  <defs>
    <style>
      .cls-1, .cls-2 {
        stroke-width: 0px;
      }

      .cls-2 {
        fill: #3b5aff;
      }
    </style>
  </defs>
  <g>
    <polygon class="cls-1" points="19.51 13.16 21.24 13.16 21.24 9.34 25.16 9.34 25.16 7.8 21.24 7.8 21.24 5.55 25.62 5.55 25.62 4 19.51 4 19.51 13.16"/>
    <path class="cls-1" d="m28.1,11.67c-.08-.09-.13-.25-.13-.47V4h-1.62v7.68c0,.51.13.89.4,1.12s.65.35,1.16.35h1.04v-1.34h-.43c-.2,0-.34-.05-.43-.14Z"/>
    <path class="cls-1" d="m34.44,6.72c-.52-.3-1.12-.44-1.79-.44s-1.27.15-1.79.44-.93.7-1.22,1.23-.44,1.13-.44,1.8.15,1.31.44,1.85c.29.54.7.95,1.22,1.25s1.12.44,1.79.44,1.28-.15,1.81-.44.93-.71,1.22-1.25c.29-.54.43-1.15.43-1.85s-.15-1.27-.44-1.79c-.29-.52-.7-.93-1.22-1.23Zm-.51,4.57c-.33.4-.76.6-1.28.6s-.96-.2-1.29-.59-.5-.91-.5-1.55c0-.4.08-.76.23-1.07s.36-.56.64-.74c.27-.18.58-.26.92-.26.53,0,.96.19,1.28.58.33.39.49.89.49,1.49s-.16,1.15-.49,1.55Z"/>
    <polygon class="cls-1" points="43.31 10.77 42.02 6.42 40.62 6.42 39.33 10.79 38.18 6.42 36.45 6.42 38.51 13.16 40.04 13.16 41.34 8.62 42.6 13.16 44.12 13.16 46.21 6.42 44.49 6.42 43.31 10.77"/>
    <path class="cls-1" d="m52.47,9.83c0,.62-.15,1.09-.46,1.43-.3.34-.8.51-1.5.51s-1.2-.17-1.5-.51c-.3-.34-.46-.82-.46-1.43V4h-1.74v5.83c0,1.09.3,1.94.9,2.56.6.62,1.53.93,2.8.93s2.19-.31,2.79-.93c.6-.62.91-1.47.91-2.56V4h-1.74v5.83Z"/>
    <path class="cls-1" d="m61.51,7.98c-.25-.53-.6-.95-1.04-1.24-.45-.3-.96-.44-1.55-.44-.42,0-.77.07-1.07.22s-.58.4-.84.77v-.85h-1.62v9.16h1.62v-3.28c.26.37.53.63.83.77s.66.22,1.07.22c.58,0,1.1-.15,1.55-.44.45-.3.8-.71,1.04-1.24.25-.53.37-1.14.37-1.82s-.12-1.29-.37-1.82Zm-1.73,3.34c-.31.4-.72.59-1.24.59s-.93-.2-1.25-.59c-.32-.39-.49-.9-.49-1.52s.16-1.13.49-1.52c.32-.39.74-.59,1.25-.59s.92.2,1.24.59c.31.4.47.9.47,1.52s-.16,1.12-.47,1.52Z"/>
  </g>
  <g>
    <polygon class="cls-2" points="68.53 4 61.22 4 61.22 5.55 64.02 5.55 64.02 13.16 65.75 13.16 65.75 5.55 68.53 5.55 68.53 4"/>
    <path class="cls-2" d="m72.21,6.66c-.51-.25-1.07-.38-1.68-.38-.74,0-1.36.17-1.87.5-.51.34-.89.77-1.14,1.31s-.38,1.12-.38,1.73c0,.66.14,1.26.43,1.78s.69.93,1.21,1.23c.52.3,1.12.44,1.8.44.85,0,1.54-.22,2.09-.67.54-.44.92-1.02,1.14-1.73h-1.66c-.11.3-.3.54-.56.73-.26.19-.58.28-.95.28-.34,0-.65-.09-.92-.26-.27-.17-.48-.41-.64-.73-.14-.25-.23-.51-.25-.79h5.09v-.35c0-.78-.16-1.43-.47-1.95-.31-.52-.72-.91-1.24-1.16Zm-3.31,2.25c.03-.24.12-.45.26-.62.15-.24.35-.42.59-.54.24-.12.52-.18.82-.18s.58.06.83.19.45.3.6.53c.14.16.22.37.25.62h-3.36Z"/>
    <path class="cls-2" d="m80.25,7.72c-.11-.29-.29-.54-.54-.76-.25-.22-.55-.39-.9-.51-.35-.12-.73-.17-1.14-.17-.72,0-1.35.2-1.9.59-.54.39-.87.96-.98,1.7h1.61c.06-.31.2-.56.44-.74.24-.18.51-.28.82-.28.4,0,.7.11.9.32.2.22.31.53.32.95l-2,.37c-.68.13-1.2.32-1.57.58-.51.35-.77.86-.77,1.54,0,.62.2,1.11.61,1.46.41.35.94.52,1.6.52s1.15-.12,1.52-.37c.24-.15.44-.38.61-.67v.91h1.62v-3.5c0-.42-.01-.78-.04-1.07-.03-.29-.1-.58-.21-.86Zm-1.55,3.43c-.13.28-.36.5-.7.67-.26.13-.54.19-.86.19-.3,0-.53-.07-.71-.2-.18-.13-.27-.32-.27-.57,0-.21.07-.38.22-.53.19-.18.5-.3.94-.38l1.61-.32c-.02.48-.09.86-.22,1.14Z"/>
    <path class="cls-2" d="m90.45,6.93c-.37-.43-.92-.65-1.66-.65-.45,0-.84.09-1.16.26-.33.17-.6.45-.82.82-.1-.35-.31-.62-.62-.8-.31-.18-.69-.28-1.14-.28-.37,0-.7.08-1,.23-.3.16-.58.41-.83.76v-.85h-1.62v6.73h1.62v-3.56c0-.42.03-.76.1-1.01.06-.25.16-.46.3-.62.21-.23.48-.35.82-.35s.61.11.79.33c.18.22.28.55.28,1v4.21h1.62v-3.56c0-.41.03-.74.09-1.01.06-.26.17-.48.32-.65.2-.22.47-.32.8-.32.7,0,1.06.44,1.06,1.33v4.21h1.62v-4.42c0-.78-.18-1.38-.55-1.81Z"/>
  </g>
  <path class="cls-2" d="m15.96,7.74l-3.55-.95,2.95-.79-.59-2.22-3.55.95,2.16-2.16-1.62-1.62-2.6,2.6.79-2.95-2.22-.59-.95,3.55-.79-2.95-2.22.59.95,3.55-2.16-2.16-1.62,1.62,2.6,2.6-2.95-.79-.59,2.22,3.55.95-2.95.79.59,2.22,3.55-.95-2.16,2.16,1.62,1.62,2.6-2.6-.79,2.95,2.22.59.95-3.55.79,2.95,2.22-.59-.95-3.55,2.16,2.16,1.62-1.62-2.6-2.6,2.95.79.59-2.22Zm-7.98,4.77c-2.5,0-4.53-2.03-4.53-4.53S5.48,3.45,7.98,3.45s4.53,2.03,4.53,4.53-2.03,4.53-4.53,4.53Z"/>
</svg>